<svg
        focusable="false"
        viewBox="0 0 23 26"
        aria-hidden="true"
        role="presentation"
        fill="none"
      >
        <path
          fill-rule="evenodd"
          clip-rule="evenodd"
          d="M2 0C0.89543 0 0 0.89543 0 2V7.23077C0 8.33534 0.89543 9.23077 2 9.23077H6.54797V7.23077C6.54797 6.37392 6.94218 5.55216 7.64388 4.94627C8.34558 4.34038 9.29729 4 10.2896 4C11.282 4 12.2337 4.34038 12.9354 4.94627C13.6371 5.55216 14.0313 6.37392 14.0313 7.23077V9.23077H20.45C21.5546 9.23077 22.45 8.33534 22.45 7.23077V2C22.45 0.89543 21.5546 0 20.45 0H2Z"
        ></path>
        <path
          fill-rule="evenodd"
          clip-rule="evenodd"
          d="M7.95479 14.5024V8.31884C7.95479 7.0628 9.01759 6 10.2736 6C11.5297 6 12.5925 7.0628 12.5925 8.31884V10.9077C12.7785 10.8577 12.973 10.8309 13.1722 10.8309C14.0286 10.8309 14.7502 11.3249 15.1227 12.0374C15.4158 11.884 15.7394 11.7971 16.0708 11.7971C16.8368 11.7971 17.5607 12.261 17.9637 12.9381C18.2717 12.7654 18.616 12.6667 18.9693 12.6667C20.1288 12.6667 21.1916 13.7295 21.1916 14.9855V19.43C21.1916 23.1015 18.293 26 14.6215 26H12.6891H12.5925C10.4669 25.9034 8.53455 24.8406 7.37513 23.0048L7.1819 22.715C6.89204 22.3285 5.82924 20.4928 3.99349 17.2077C3.41378 16.1449 3.70363 14.7923 4.76644 14.116C5.82922 13.5363 7.08523 13.6329 7.95479 14.5024ZM16.7471 14.9918V15.5652C16.7471 16.0483 17.037 16.4348 17.5201 16.4348C18.0032 16.4348 18.293 16.0483 18.293 15.5652V14.9812C18.2959 14.6928 18.5848 14.4058 18.9693 14.4058C19.3558 14.4058 19.6457 14.599 19.6457 14.9855V19.3333C19.6457 22.1353 17.3268 24.3575 14.6215 24.3575H12.979C11.3365 24.3575 9.79059 23.4879 8.82441 22.1353L8.63117 21.8454C8.34132 21.3623 7.27851 19.5266 5.44276 16.3382C5.24953 16.0483 5.34615 15.6618 5.636 15.4686C6.02247 15.2754 6.50557 15.372 6.79542 15.6618L8.2447 17.1111C8.50709 17.3735 9.007 17.3984 9.31441 17.1857C9.54409 17.0581 9.69392 16.8322 9.69392 16.5314V8.31884C9.69392 7.93237 9.98378 7.73913 10.2736 7.73913C10.5635 7.73913 10.8533 7.93237 10.8533 8.31884V15.5652C10.8533 16.0483 11.2398 16.4348 11.7229 16.4348C12.206 16.4348 12.5925 16.0483 12.5925 15.5652V15.0919L12.5925 15.0821V13.1498C12.5925 12.8599 12.7858 12.5701 13.1722 12.5701C13.5587 12.5701 13.8486 12.7633 13.8486 13.1498V15.5652C13.8486 16.0483 14.1384 16.4348 14.6215 16.4348C15.1046 16.4348 15.3945 16.0483 15.3945 15.5652V14.1223L15.3945 14.116C15.3945 13.8261 15.6843 13.5362 16.0708 13.5362C16.4573 13.5362 16.7471 13.7295 16.7471 14.116V14.9756C16.7471 14.9789 16.7471 14.9822 16.7471 14.9855C16.7471 14.9876 16.7471 14.9897 16.7471 14.9918Z"
        ></path>
</svg>